<svg width="31" height="33" viewBox="0 0 31 33" fill="none" xmlns="http://www.w3.org/2000/svg">
<path d="M13.875 24.4166H16.9583V14.9166H13.875V24.4166ZM15.4167 11.75C15.8535 11.75 16.2196 11.5982 16.5151 11.2948C16.8106 10.9913 16.9583 10.6152 16.9583 10.1666C16.9583 9.71801 16.8106 9.34197 16.5151 9.0385C16.2196 8.73503 15.8535 8.58329 15.4167 8.58329C14.9799 8.58329 14.6137 8.73503 14.3182 9.0385C14.0227 9.34197 13.875 9.71801 13.875 10.1666C13.875 10.6152 14.0227 10.9913 14.3182 11.2948C14.6137 11.5982 14.9799 11.75 15.4167 11.75ZM15.4167 32.3333C13.284 32.3333 11.2799 31.9177 9.40417 31.0864C7.52847 30.2552 5.89688 29.127 4.50938 27.702C3.12188 26.277 2.02344 24.6013 1.21406 22.675C0.404687 20.7486 0 18.6902 0 16.5C0 14.3097 0.404687 12.2513 1.21406 10.325C2.02344 8.39857 3.12188 6.72288 4.50938 5.29788C5.89688 3.87288 7.52847 2.74475 9.40417 1.9135C11.2799 1.08225 13.284 0.666626 15.4167 0.666626C17.5493 0.666626 19.5535 1.08225 21.4292 1.9135C23.3049 2.74475 24.9365 3.87288 26.324 5.29788C27.7115 6.72288 28.8099 8.39857 29.6193 10.325C30.4286 12.2513 30.8333 14.3097 30.8333 16.5C30.8333 18.6902 30.4286 20.7486 29.6193 22.675C28.8099 24.6013 27.7115 26.277 26.324 27.702C24.9365 29.127 23.3049 30.2552 21.4292 31.0864C19.5535 31.9177 17.5493 32.3333 15.4167 32.3333ZM15.4167 29.1666C18.8597 29.1666 21.776 27.9395 24.1656 25.4854C26.5552 23.0312 27.75 20.0361 27.75 16.5C27.75 12.9638 26.5552 9.96871 24.1656 7.51454C21.776 5.06038 18.8597 3.83329 15.4167 3.83329C11.9736 3.83329 9.05729 5.06038 6.66771 7.51454C4.27813 9.96871 3.08333 12.9638 3.08333 16.5C3.08333 20.0361 4.27813 23.0312 6.66771 25.4854C9.05729 27.9395 11.9736 29.1666 15.4167 29.1666Z" fill="#1C1B1F"/>
</svg>
